<?xml version="1.0" standalone="no"?>
<!DOCTYPE svg PUBLIC "-//W3C//DTD SVG 20010904//EN"
 "http://www.w3.org/TR/2001/REC-SVG-20010904/DTD/svg10.dtd">
<svg version="1.0" xmlns="http://www.w3.org/2000/svg"
 width="202.000000pt" height="202.000000pt" viewBox="0 0 202.000000 202.000000"
 preserveAspectRatio="xMidYMid meet">
<metadata>
Created by potrace 1.14, written by Peter Selinger 2001-2017
</metadata>
<g transform="translate(0.000000,202.000000) scale(0.100000,-0.100000)"
fill="#000000" stroke="none">
<path d="M544 1156 c-25 -19 -54 -119 -38 -133 6 -7 15 -9 20 -5 4 4 4 2 0 -5
-4 -7 -13 -10 -21 -6 -14 5 -21 -13 -16 -41 1 -4 -3 -14 -9 -21 -8 -9 -8 -15
0 -20 9 -6 14 1 11 18 0 4 4 7 10 7 7 0 8 -7 4 -17 -4 -10 -8 -24 -8 -30 0
-16 -10 -16 -25 -1 -8 8 -12 8 -12 1 0 -6 7 -13 15 -17 8 -3 15 -13 15 -21 0
-9 -4 -14 -8 -11 -5 3 -9 -1 -9 -9 0 -17 35 -31 48 -18 5 5 10 20 13 33 2 14
5 27 6 30 2 3 2 8 1 13 0 4 4 7 9 7 6 0 10 -5 10 -12 0 -21 13 1 15 27 2 14
-1 23 -5 20 -5 -3 -6 -13 -3 -22 4 -11 3 -14 -5 -9 -14 9 -10 42 7 59 7 6 11
8 10 2 -1 -5 0 -17 4 -25 14 -38 14 -59 0 -64 -11 -5 -8 -13 14 -40 31 -40 45
-35 63 20 7 22 16 32 23 27 7 -4 7 0 -1 9 -11 14 -11 21 1 45 8 15 13 35 12
43 -2 10 5 17 17 17 19 2 19 1 3 -11 -13 -9 -15 -15 -6 -20 6 -4 9 -11 7 -15
-3 -4 -8 -21 -10 -37 -3 -16 -8 -39 -10 -51 -3 -13 1 -24 10 -27 9 -3 13 -10
10 -15 -3 -5 6 -11 19 -14 33 -6 66 21 90 72 10 23 22 41 28 41 5 0 4 -6 -2
-14 -9 -11 -9 -16 0 -22 7 -4 9 -3 5 4 -3 5 -1 12 5 14 5 2 7 11 4 21 -4 9
-10 15 -14 12 -4 -2 -8 2 -8 9 0 7 7 13 16 12 22 -1 22 37 0 74 -16 26 -27 32
-59 32 -3 1 -21 -2 -40 -6 -20 -3 -30 -2 -22 2 7 5 14 23 14 41 1 42 -25 62
-66 50 -17 -5 -33 -9 -35 -9 -2 0 -1 -9 2 -20 3 -11 1 -18 -3 -15 -5 3 -11 -3
-13 -12 -3 -12 -5 -9 -6 8 -2 42 -54 69 -87 45z m-21 -96 c-3 -12 -8 -19 -11
-16 -5 6 5 36 12 36 2 0 2 -9 -1 -20z m137 4 c0 -8 -19 -13 -24 -6 -3 5 1 9 9
9 8 0 15 -2 15 -3z m74 -22 c-5 -4 -12 -11 -15 -15 -3 -5 -9 -2 -12 5 -3 9 3
14 15 15 11 1 16 -1 12 -5z m124 -22 c17 -29 0 -24 -21 5 -11 16 -13 23 -5 20
8 -3 19 -14 26 -25z m-108 0 c0 -5 -2 -10 -4 -10 -3 0 -8 5 -11 10 -3 6 -1 10
4 10 6 0 11 -4 11 -10z m-108 -12 c-9 -9 -9 -15 0 -27 8 -11 5 -10 -8 2 -16
15 -17 19 -4 27 21 13 26 12 12 -2z m152 -16 c3 -5 -1 -9 -9 -9 -8 0 -12 4 -9
9 3 4 7 8 9 8 2 0 6 -4 9 -8z m-280 -23 c-3 -5 -10 -7 -15 -3 -5 3 -7 10 -3
15 3 5 10 7 15 3 5 -3 7 -10 3 -15z m122 -25 c1 -9 0 -13 -4 -10 -3 4 -7 14
-8 22 -1 9 0 13 4 10 3 -4 7 -14 8 -22z m161 -3 c3 -19 0 -21 -19 -16 -21 5
-21 5 -6 -8 14 -11 15 -17 5 -37 -22 -43 -39 -10 -25 50 10 44 39 51 45 11z
m-197 -71 c0 -5 -2 -10 -4 -10 -3 0 -8 5 -11 10 -3 6 -1 10 4 10 6 0 11 -4 11
-10z"/>
<path d="M755 880 c3 -5 8 -10 11 -10 2 0 4 5 4 10 0 6 -5 10 -11 10 -5 0 -7
-4 -4 -10z"/>
<path d="M1009 1156 c-15 -7 -26 -28 -36 -65 -7 -30 -11 -56 -9 -58 2 -3 -2
-16 -9 -30 -7 -13 -12 -32 -10 -41 1 -9 -3 -20 -9 -24 -7 -5 -7 -8 3 -8 10 0
11 -3 2 -14 -10 -11 -8 -17 6 -25 11 -7 14 -14 8 -18 -14 -11 -18 -40 -6 -47
19 -12 136 -10 134 2 -2 7 3 12 9 12 7 0 2 7 -11 16 -13 9 -26 13 -30 8 -9
-14 -41 -16 -41 -4 0 6 -5 8 -12 4 -7 -5 -8 -3 -2 7 5 8 9 22 10 32 1 9 2 18
4 20 3 4 12 41 13 59 1 9 4 15 8 12 4 -2 12 8 18 23 6 16 9 19 7 8 -2 -11 -7
-28 -11 -37 -4 -10 -3 -18 2 -18 5 0 18 36 28 80 14 62 15 82 6 94 -17 20 -46
25 -72 12z m-9 -112 c0 -8 -19 -13 -24 -6 -3 5 1 9 9 9 8 0 15 -2 15 -3z m-24
-56 c-3 -13 -5 -26 -5 -30 -1 -5 -5 -8 -10 -8 -8 0 -8 21 -1 40 1 3 2 8 1 13
0 4 3 7 9 7 5 0 8 -10 6 -22z m-11 -78 c-3 -5 -11 -10 -16 -10 -6 0 -7 5 -4
10 3 6 11 10 16 10 6 0 7 -4 4 -10z"/>
<path d="M1183 1071 c-13 -3 -32 -14 -44 -24 -16 -14 -18 -21 -9 -32 12 -15 6
-35 -11 -35 -5 0 -9 5 -9 11 0 5 5 7 10 4 6 -3 10 -1 10 4 0 17 -30 13 -31 -4
-2 -19 -4 -25 -14 -48 -4 -10 -5 -21 -1 -24 3 -4 6 1 6 11 0 9 4 15 9 11 6 -3
8 4 6 15 -2 11 0 18 5 15 5 -3 6 -15 4 -28 -11 -43 -5 -129 8 -121 4 3 8 1 8
-3 0 -7 44 -9 60 -3 3 1 9 2 13 1 5 -1 6 3 2 9 -3 5 -1 10 4 10 6 0 10 5 8 12
-4 22 28 19 38 -4 7 -15 18 -22 32 -21 15 2 20 -2 18 -15 -2 -9 -4 -20 -4 -24
-2 -13 -21 -9 -37 7 -18 17 -34 20 -34 4 0 -5 -4 -7 -10 -4 -5 3 -7 0 -4 -9 9
-24 74 -45 101 -33 12 5 22 13 21 16 -2 15 15 72 23 77 5 3 7 10 3 15 -3 5 0
16 6 24 7 8 10 15 7 15 -3 0 4 24 15 53 11 28 20 60 20 71 -1 26 9 13 12 -18
2 -14 -1 -23 -5 -20 -5 3 -9 2 -10 -3 0 -4 -3 -17 -5 -28 -12 -47 -11 -82 3
-111 12 -26 18 -30 41 -26 15 2 36 13 48 23 11 11 25 16 29 12 5 -5 4 -1 -3 8
-9 12 -8 20 3 36 8 11 11 24 7 28 -4 4 4 4 18 1 18 -5 21 -5 11 3 -18 12 -23
39 -9 48 6 3 8 2 5 -4 -3 -5 0 -10 7 -10 7 0 13 6 13 13 0 7 -4 11 -9 8 -5 -3
-6 5 -3 18 7 28 -35 75 -56 63 -8 -6 -10 -4 -4 5 6 9 2 10 -16 4 -13 -4 -59
-7 -101 -5 -56 1 -78 -2 -78 -10 0 -7 -3 -9 -7 -6 -3 4 -17 0 -29 -8 -17 -11
-25 -12 -30 -3 -5 7 -3 8 7 3 12 -7 12 -6 1 7 -16 20 -40 26 -69 19z m17 -15
c0 -2 -7 -7 -16 -10 -8 -3 -12 -2 -9 4 6 10 25 14 25 6z m244 -22 c3 -8 2 -12
-4 -9 -6 3 -10 10 -10 16 0 14 7 11 14 -7z m-147 -16 c-3 -8 -6 -5 -6 6 -1 11
2 17 5 13 3 -3 4 -12 1 -19z m-26 -27 c-6 -10 -8 -21 -6 -25 3 -3 2 -3 -2 0
-11 8 -10 28 2 36 15 12 17 10 6 -11z m79 -6 c-7 -8 -9 -15 -5 -15 4 0 2 -7
-5 -15 -7 -8 -9 -15 -4 -15 5 0 0 -7 -10 -15 -11 -8 -14 -15 -8 -15 9 0 9 -4
0 -19 -7 -11 -15 -18 -19 -15 -4 2 -9 -2 -12 -8 -3 -7 -4 -3 -4 10 1 16 6 21
17 17 12 -5 13 -4 3 6 -19 19 -16 29 10 30 21 0 21 1 2 9 -19 8 -19 9 -1 9 16
1 17 3 5 19 -7 9 -10 14 -5 10 5 -4 15 -1 23 7 19 20 29 19 13 0z m133 -2 c-4
-10 -2 -14 4 -10 6 4 9 -4 9 -18 -2 -31 -12 -41 -29 -27 -10 8 -13 7 -13 -7 0
-12 6 -17 18 -13 14 3 17 0 12 -12 -3 -9 -10 -14 -14 -11 -5 3 -11 1 -15 -5
-3 -5 -1 -10 5 -10 6 0 8 -5 5 -10 -13 -20 -24 2 -22 41 2 22 9 44 17 49 8 6
11 10 7 10 -4 0 -3 9 3 20 13 24 22 27 13 3z m-283 -8 c5 3 7 -3 5 -12 -1 -10
-7 -17 -13 -16 -6 1 -12 -4 -15 -11 -4 -10 1 -12 16 -9 20 4 21 3 5 -10 -20
-16 -25 -32 -7 -21 6 3 3 -5 -6 -20 -10 -15 -20 -24 -24 -20 -9 9 -8 74 1 74
5 0 8 6 7 13 -3 18 14 53 19 39 2 -7 7 -10 12 -7z m51 -52 c-8 -15 -10 -15
-11 -2 0 17 10 32 18 25 2 -3 -1 -13 -7 -23z m-1 -33 c0 -5 -5 -10 -11 -10 -5
0 -7 5 -4 10 3 6 8 10 11 10 2 0 4 -4 4 -10z"/>
<path d="M1474 956 c1 -8 5 -18 8 -22 4 -3 5 1 4 10 -1 8 -5 18 -8 22 -4 3 -5
-1 -4 -10z"/>
<path d="M1176 962 c-3 -5 1 -9 9 -9 8 0 12 4 9 9 -3 4 -7 8 -9 8 -2 0 -6 -4
-9 -8z"/>
<path d="M1027 957 c-3 -8 -1 -20 5 -28 8 -11 9 -11 5 3 -3 9 -1 18 6 21 8 2
8 5 0 10 -6 4 -13 1 -16 -6z"/>
<path d="M687 935 c-4 -8 -3 -16 1 -19 4 -3 9 4 9 15 2 23 -3 25 -10 4z"/>
<path d="M1020 900 c-9 -6 -10 -10 -3 -10 6 0 15 5 18 10 8 12 4 12 -15 0z"/>
<path d="M1073 895 c0 -8 4 -12 9 -9 4 3 8 9 8 15 0 5 -4 9 -8 9 -5 0 -9 -7
-9 -15z"/>
<path d="M1542 901 c-11 -7 -11 -9 0 -14 9 -3 15 1 15 9 0 8 -1 14 -1 14 -1 0
-7 -4 -14 -9z"/>
<path d="M834 882 c3 -5 0 -12 -6 -15 -7 -2 -10 -7 -7 -11 3 -4 12 0 18 8 9
11 9 16 0 22 -7 4 -9 3 -5 -4z"/>
<path d="M916 873 c-4 -9 -3 -20 1 -24 4 -4 9 3 9 17 2 28 -1 31 -10 7z"/>
<path d="M795 829 c-4 -6 -5 -12 -2 -15 2 -3 7 2 10 11 7 17 1 20 -8 4z"/>
</g>
</svg>
